Coordinates
version=1
nRows=10
nColumns=22
inDegrees=yes

Units are S.I. units (second, meters, Newtons, ...)
If the header above contains a line with 'inDegrees', this indicates whether rotational values are in degrees (yes) or radians (no).

endheader
time	pelvis_tilt	pelvis_list	pelvis_rotation	pelvis_tx	pelvis_ty	pelvis_tz	hip_flexion_r	hip_adduction_r	hip_rotation_r	knee_angle_r	ankle_angle_r	subtalar_angle_r	hip_flexion_l	hip_adduction_l	hip_rotation_l	knee_angle_l	ankle_angle_l	subtalar_angle_l	lumbar_extension	lumbar_bending	lumbar_rotation
      0.01000000	     -0.99394083	      0.57904957	    -28.81683458	     -0.93811434	      0.90582380	     -0.36737285	     -0.90884509	      0.72992404	     -0.60303995	     -5.72723531	     16.06089101	     -1.60291272	      3.10188245	     -3.42168199	    -10.11529615	    -14.71295839	     14.21472990	      1.68264400	     -2.17409306	     -2.51760501	      3.94486170
      0.02000000	     -0.99199719	      0.58081581	    -28.81322391	     -0.93803227	      0.90581741	     -0.36725597	     -0.91552838	      0.73247558	     -0.59864214	     -5.73409641	     16.06166144	     -1.60338036	      3.09774257	     -3.42205771	    -10.11032447	    -14.72027920	     14.21758280	      1.68262083	     -2.16736148	     -2.51764806	      3.94603372
      0.03000000	     -0.98384309	      0.57184190	    -28.80323564	     -0.93799179	      0.90581613	     -0.36715501	     -0.92578806	      0.74349763	     -0.58388800	     -5.75179957	     16.07611893	     -1.60708655	      3.10324967	     -3.43158949	    -10.07825061	    -14.76114469	     14.23701199	      1.67994789	     -2.18751307	     -2.51258352	      3.94813095
      0.04000000	     -0.98211788	      0.57272512	    -28.79748172	     -0.93789040	      0.90580286	     -0.36702249	     -0.93441619	      0.74772701	     -0.58298304	     -5.75945691	     16.07829762	     -1.60791744	      3.09853147	     -3.43384549	    -10.07529647	    -14.77054776	     14.23952354	      1.67905246	     -2.18066095	     -2.51032092	      3.94743618
      0.05000000	     -0.96973468	      0.53184063	    -28.76375117	     -0.93782062	      0.90581165	     -0.36693946	     -0.97136423	      0.78785047	     -0.62243478	     -5.77242008	     16.11523991	     -1.62595321	      3.09766297	     -3.47636692	    -10.04756024	    -14.83496724	     14.29546085	      1.66055065	     -2.22630007	     -2.47180072	      3.91247235
      0.06000000	     -0.95904074	      0.52306476	    -28.75087407	     -0.93775512	      0.90580910	     -0.36682985	     -0.98950191	      0.79791196	     -0.62575995	     -5.78354047	     16.11768804	     -1.63126495	      3.09526746	     -3.48502982	    -10.02690055	    -14.86802188	     14.30557924	      1.65486921	     -2.24744156	     -2.47042722	      3.91705929
      0.07000000	     -0.94262026	      0.49644081	    -28.73393274	     -0.93767463	      0.90581890	     -0.36673103	     -1.02563312	      0.82079006	     -0.64387735	     -5.79086361	     16.13634187	     -1.63998454	      3.08081756	     -3.50870369	    -10.00693768	    -14.90766941	     14.32965861	      1.64475211	     -2.28556597	     -2.44974762	      3.90504825
      0.08000000	     -0.94236088	      0.49791751	    -28.73037750	     -0.93756556	      0.90579769	     -0.36661401	     -1.03424506	      0.82340956	     -0.64491239	     -5.79500728	     16.13668343	     -1.64079938	      3.07460920	     -3.51038644	    -10.00572686	    -14.91330236	     14.33181977	      1.64399029	     -2.28158579	     -2.44833820	      3.90476744
      0.09000000	     -0.91051140	      0.45040859	    -28.70796114	     -0.93744852	      0.90583793	     -0.36651258	     -1.11114782	      0.85741038	     -0.69172403	     -5.77784779	     16.15084642	     -1.66117198	      3.02840268	     -3.54731570	     -9.99777023	    -14.94537119	     14.39164056	      1.62675543	     -2.34885552	     -2.41571464	      3.87946589
      0.10000000	     -0.91167868	      0.45287607	    -28.71052821	     -0.93733565	      0.90581722	     -0.36639320	     -1.11857675	      0.85878715	     -0.69221604	     -5.77978542	     16.15065186	     -1.66186551	      3.02269652	     -3.54878930	     -9.99481203	    -14.95169155	     14.39213464	      1.62621101	     -2.34529686	     -2.41620530	      3.88102906
